<svg xmlns="http://www.w3.org/2000/svg" width="1600" height="1200" viewBox="0 0 1600 1200" role="img" aria-labelledby="title desc"><title id="title">Професионално почистване</title><desc id="desc">Илюстрация на екип по почистване в модерен апартамент.</desc><defs><linearGradient id="g" x1="0" y1="0" x2="1" y2="1"><stop offset="0%" stop-color="#eef9f5"/><stop offset="100%" stop-color="#d7e8ff"/></linearGradient></defs><rect width="1600" height="1200" fill="url(#g)"/><rect x="180" y="170" width="1240" height="760" rx="40" fill="#fff" opacity="0.94"/><rect x="250" y="270" width="380" height="450" rx="28" fill="#f0f6fb"/><rect x="690" y="270" width="650" height="130" rx="26" fill="#eff8f5"/><rect x="690" y="440" width="300" height="280" rx="26" fill="#f4f8fb"/><rect x="1030" y="440" width="310" height="280" rx="26" fill="#f4f8fb"/><circle cx="450" cy="515" r="130" fill="#d9f1e9"/><rect x="395" y="640" width="110" height="150" rx="26" fill="#0f8d7a" opacity="0.9"/><rect x="775" y="308" width="320" height="26" rx="13" fill="#0f8d7a" opacity="0.25"/><rect x="775" y="355" width="470" height="18" rx="9" fill="#0f6ad8" opacity="0.15"/><rect x="754" y="500" width="170" height="160" rx="24" fill="#dcecf7"/><rect x="1088" y="500" width="170" height="160" rx="24" fill="#dcecf7"/><circle cx="1190" cy="930" r="95" fill="#0f8d7a" opacity="0.14"/></svg>